<?xml version="1.0" encoding="utf-8"?>
<!-- Generator: Adobe Illustrator 20.1.0, SVG Export Plug-In . SVG Version: 6.00 Build 0)  -->
<svg version="1.1" id="Layer_1" xmlns="http://www.w3.org/2000/svg" xmlns:xlink="http://www.w3.org/1999/xlink" x="0px" y="0px"
	 viewBox="0 0 240 240" style="enable-background:new 0 0 240 240;" xml:space="preserve">
<style type="text/css">
	.st0{fill:#0000EE;}
	.st1{fill:none;}
	.st2{fill:#FFFFFF;}
</style>
<rect x="35.1" y="35.1" transform="matrix(0.7071 -0.7071 0.7071 0.7071 -49.7056 120)" class="st0" width="169.7" height="169.7"/>
<g>
	<rect x="60" y="60" class="st1" width="120" height="120"/>
	<g>
		<polygon class="st2" points="111.4,102.9 94.3,102.9 94.3,154.3 77.1,154.3 77.1,102.9 60,102.9 60,85.7 111.4,85.7 		"/>
		<g>
			<path class="st2" d="M145.7,85.7c-18.9,0-34.3,15.4-34.3,34.3c0,18.9,15.4,34.3,34.3,34.3v-17.1c-9.5,0-17.1-7.7-17.1-17.1
				c0-9.5,7.7-17.1,17.1-17.1c9.5,0,17.1,7.7,17.1,17.1c0,9.5-7.7,17.1-17.1,17.1l14.1,14.1c11.9-5.4,20.2-17.3,20.2-31.2
				C180,101.1,164.6,85.7,145.7,85.7z"/>
			<polygon class="st2" points="159.4,150.9 180,171.4 180,150.9 			"/>
		</g>
	</g>
</g>
<g>
</g>
<g>
</g>
<g>
</g>
<g>
</g>
<g>
</g>
<g>
</g>
</svg>
